<svg width="1438" height="412" viewBox="0 0 1438 412" fill="none" xmlns="http://www.w3.org/2000/svg">
<circle cx="166.207" cy="187.589" r="16.9877" fill="black"/>
<circle cx="17.2386" cy="85.6623" r="16.9877" fill="black"/>
<circle cx="1208.99" cy="326.104" r="16.9877" fill="black"/>
<circle cx="1159.33" cy="292.128" r="16.9877" fill="black"/>
<circle cx="1431.14" cy="394.055" r="16.9877" fill="black"/>
<circle cx="990.766" cy="17.7116" r="16.9877" fill="black"/>
<circle cx="1424.61" cy="17.7116" r="16.9877" fill="black"/>
<circle cx="1431.14" cy="114.411" r="16.9877" fill="black"/>
<circle cx="1159.33" cy="80.4355" r="16.9877" fill="black"/>
<circle cx="1125.36" cy="102.65" r="16.9877" fill="black"/>
<circle cx="866.624" cy="377.067" r="16.9877" fill="black"/>
<circle cx="699.36" cy="119.638" r="16.9877" fill="black"/>
<circle cx="379.206" cy="292.128" r="16.9877" fill="black"/>
<circle cx="521.643" cy="343.091" r="16.9877" fill="black"/>
<circle cx="51.2149" cy="309.116" r="16.9877" fill="black"/>
<circle cx="115.246" cy="343.091" r="16.9877" fill="black"/>
<circle cx="149.22" cy="34.6994" r="16.9877" fill="black"/>
<circle cx="132.233" cy="119.638" r="16.9877" fill="black"/>
<circle cx="362.221" cy="51.6869" r="16.9877" fill="black"/>
<circle cx="716.347" cy="187.589" r="16.9877" fill="black"/>
<circle cx="1254.73" cy="187.589" r="16.9877" fill="black"/>
<line x1="222.4" y1="186.464" x2="660.236" y2="186.464" stroke="black" stroke-width="2.25"/>
<line x1="771.232" y1="186.464" x2="1209.07" y2="186.464" stroke="black" stroke-width="2.25"/>
<path d="M143.735 223.603C143.984 223.603 144.16 223.662 144.262 223.779C144.372 223.889 144.427 224.079 144.427 224.35V227.25C144.427 227.507 144.365 227.69 144.24 227.8C144.116 227.91 143.903 227.965 143.603 227.965C143.303 227.965 143.09 227.91 142.966 227.8C142.841 227.69 142.779 227.507 142.779 227.25V225.097H136.901V229.393H139.692V228.393C139.692 228.137 139.747 227.954 139.857 227.844C139.974 227.734 140.179 227.679 140.472 227.679C140.765 227.679 140.966 227.734 141.076 227.844C141.193 227.954 141.252 228.137 141.252 228.393V231.887C141.252 232.143 141.193 232.326 141.076 232.436C140.966 232.546 140.765 232.601 140.472 232.601C140.179 232.601 139.974 232.546 139.857 232.436C139.747 232.326 139.692 232.143 139.692 231.887V230.887H136.901V235.15H139.45C139.699 235.15 139.875 235.208 139.978 235.325C140.087 235.435 140.142 235.626 140.142 235.897C140.142 236.168 140.087 236.362 139.978 236.479C139.875 236.589 139.699 236.644 139.45 236.644H133.803C133.554 236.644 133.375 236.589 133.265 236.479C133.162 236.362 133.111 236.168 133.111 235.897C133.111 235.626 133.162 235.435 133.265 235.325C133.375 235.208 133.554 235.15 133.803 235.15H135.253V225.097H133.803C133.554 225.097 133.375 225.042 133.265 224.932C133.162 224.815 133.111 224.621 133.111 224.35C133.111 224.079 133.162 223.889 133.265 223.779C133.375 223.662 133.554 223.603 133.803 223.603H143.735ZM155.831 226.251C156.402 226.251 156.937 226.397 157.435 226.69C157.728 226.866 157.874 227.093 157.874 227.371C157.874 227.503 157.841 227.657 157.775 227.833C157.622 228.25 157.409 228.459 157.138 228.459C157.028 228.459 156.926 228.43 156.831 228.371C156.472 228.173 156.087 228.074 155.677 228.074C155.018 228.074 154.355 228.305 153.688 228.767C153.022 229.221 152.473 229.829 152.041 230.59C151.616 231.352 151.403 232.161 151.403 233.018V235.15H155.106C155.355 235.15 155.531 235.208 155.633 235.325C155.743 235.435 155.798 235.626 155.798 235.897C155.798 236.168 155.743 236.362 155.633 236.479C155.531 236.589 155.355 236.644 155.106 236.644H148.031C147.781 236.644 147.602 236.589 147.492 236.479C147.39 236.362 147.338 236.168 147.338 235.897C147.338 235.626 147.39 235.435 147.492 235.325C147.602 235.208 147.781 235.15 148.031 235.15H149.755V227.987H148.36C148.111 227.987 147.932 227.932 147.822 227.822C147.719 227.705 147.668 227.51 147.668 227.24C147.668 226.969 147.719 226.778 147.822 226.668C147.932 226.551 148.111 226.492 148.36 226.492H150.601C150.85 226.492 151.026 226.551 151.129 226.668C151.239 226.778 151.293 226.969 151.293 227.24V229.459C151.645 228.814 152.07 228.25 152.568 227.767C153.066 227.283 153.597 226.91 154.161 226.646C154.725 226.383 155.281 226.251 155.831 226.251ZM165.96 226.251C166.964 226.251 167.868 226.478 168.674 226.932C169.479 227.386 170.109 228.02 170.563 228.833C171.025 229.638 171.256 230.55 171.256 231.568C171.256 232.586 171.025 233.502 170.563 234.315C170.109 235.12 169.479 235.75 168.674 236.204C167.868 236.658 166.964 236.885 165.96 236.885C164.957 236.885 164.052 236.658 163.247 236.204C162.441 235.75 161.807 235.12 161.346 234.315C160.892 233.502 160.665 232.586 160.665 231.568C160.665 230.55 160.892 229.638 161.346 228.833C161.807 228.02 162.441 227.386 163.247 226.932C164.052 226.478 164.957 226.251 165.96 226.251ZM165.96 227.877C165.25 227.877 164.624 228.034 164.082 228.349C163.547 228.657 163.133 229.093 162.84 229.656C162.547 230.213 162.401 230.85 162.401 231.568C162.401 232.286 162.547 232.927 162.84 233.491C163.133 234.047 163.547 234.483 164.082 234.798C164.624 235.106 165.25 235.26 165.96 235.26C166.671 235.26 167.293 235.106 167.828 234.798C168.37 234.483 168.787 234.047 169.08 233.491C169.373 232.927 169.52 232.286 169.52 231.568C169.52 230.85 169.373 230.213 169.08 229.656C168.787 229.093 168.37 228.657 167.828 228.349C167.293 228.034 166.671 227.877 165.96 227.877ZM185.791 235.15C186.04 235.15 186.215 235.208 186.318 235.325C186.428 235.435 186.483 235.626 186.483 235.897C186.483 236.168 186.428 236.362 186.318 236.479C186.215 236.589 186.04 236.644 185.791 236.644H184.154C183.905 236.644 183.725 236.589 183.615 236.479C183.513 236.362 183.461 236.168 183.461 235.897V229.393C183.461 228.887 183.377 228.51 183.209 228.261C183.048 228.005 182.784 227.877 182.418 227.877C182.073 227.877 181.755 228.038 181.462 228.36C181.169 228.675 180.935 229.118 180.759 229.689C180.59 230.253 180.506 230.898 180.506 231.623V235.15H181.132C181.381 235.15 181.557 235.208 181.66 235.325C181.77 235.435 181.824 235.626 181.824 235.897C181.824 236.168 181.77 236.362 181.66 236.479C181.557 236.589 181.381 236.644 181.132 236.644H179.55C179.301 236.644 179.122 236.589 179.012 236.479C178.909 236.362 178.858 236.168 178.858 235.897V229.393C178.858 228.887 178.774 228.51 178.605 228.261C178.444 228.005 178.181 227.877 177.814 227.877C177.47 227.877 177.152 228.038 176.859 228.36C176.566 228.675 176.331 229.118 176.156 229.689C175.987 230.253 175.903 230.898 175.903 231.623V235.15H176.474C176.723 235.15 176.899 235.208 177.001 235.325C177.111 235.435 177.166 235.626 177.166 235.897C177.166 236.168 177.111 236.362 177.001 236.479C176.899 236.589 176.723 236.644 176.474 236.644H173.354C173.105 236.644 172.926 236.589 172.816 236.479C172.713 236.362 172.662 236.168 172.662 235.897C172.662 235.626 172.713 235.435 172.816 235.325C172.926 235.208 173.105 235.15 173.354 235.15H174.255V227.987H173.354C173.105 227.987 172.926 227.932 172.816 227.822C172.713 227.705 172.662 227.51 172.662 227.24C172.662 226.969 172.713 226.778 172.816 226.668C172.926 226.551 173.105 226.492 173.354 226.492H174.991C175.24 226.492 175.416 226.551 175.518 226.668C175.628 226.778 175.683 226.969 175.683 227.24V228.327C175.998 227.639 176.375 227.122 176.815 226.778C177.254 226.427 177.73 226.251 178.243 226.251C178.741 226.251 179.177 226.419 179.55 226.756C179.924 227.093 180.177 227.587 180.308 228.239C180.96 226.914 181.802 226.251 182.835 226.251C183.267 226.251 183.652 226.361 183.989 226.58C184.333 226.793 184.604 227.122 184.802 227.569C185.007 228.009 185.109 228.551 185.109 229.195V235.15H185.791Z" fill="black"/>
<path d="M648.46 224.334C648.709 224.334 648.885 224.393 648.987 224.51C649.097 224.62 649.152 224.81 649.152 225.081V229.223C649.152 229.479 649.09 229.663 648.965 229.772C648.841 229.882 648.628 229.937 648.328 229.937C648.028 229.937 647.815 229.882 647.691 229.772C647.566 229.663 647.504 229.479 647.504 229.223V225.828H644.571V235.881H647.164C647.413 235.881 647.588 235.939 647.691 236.057C647.801 236.167 647.856 236.357 647.856 236.628C647.856 236.899 647.801 237.093 647.691 237.21C647.588 237.32 647.413 237.375 647.164 237.375H640.33C640.081 237.375 639.902 237.32 639.792 237.21C639.689 237.093 639.638 236.899 639.638 236.628C639.638 236.357 639.689 236.167 639.792 236.057C639.902 235.939 640.081 235.881 640.33 235.881H642.923V225.828H639.99V229.223C639.99 229.479 639.927 229.663 639.803 229.772C639.678 229.882 639.466 229.937 639.166 229.937C638.865 229.937 638.653 229.882 638.528 229.772C638.404 229.663 638.342 229.479 638.342 229.223V225.081C638.342 224.81 638.393 224.62 638.495 224.51C638.605 224.393 638.785 224.334 639.034 224.334H648.46ZM657.337 226.982C658.399 226.982 659.303 227.198 660.051 227.63C660.805 228.055 661.384 228.648 661.786 229.41C662.189 230.164 662.42 231.036 662.479 232.025C662.479 232.274 662.424 232.449 662.314 232.552C662.211 232.655 662.035 232.706 661.786 232.706H653.832C653.884 233.797 654.206 234.625 654.799 235.189C655.4 235.745 656.246 236.024 657.337 236.024C658.011 236.024 658.677 235.939 659.336 235.771C659.996 235.595 660.574 235.365 661.072 235.079C661.197 235.013 661.31 234.98 661.413 234.98C661.669 234.98 661.878 235.174 662.039 235.562C662.105 235.716 662.138 235.855 662.138 235.98C662.138 236.273 661.977 236.5 661.655 236.661C661.091 236.947 660.424 237.177 659.655 237.353C658.886 237.529 658.113 237.617 657.337 237.617C656.231 237.617 655.286 237.404 654.502 236.979C653.719 236.555 653.122 235.943 652.712 235.145C652.302 234.346 652.096 233.398 652.096 232.299C652.096 231.252 652.32 230.325 652.767 229.52C653.213 228.714 653.832 228.092 654.623 227.652C655.414 227.205 656.319 226.982 657.337 226.982ZM657.337 228.575C656.436 228.575 655.689 228.806 655.096 229.267C654.51 229.721 654.125 230.355 653.942 231.168H660.655C660.501 230.325 660.146 229.685 659.589 229.245C659.04 228.798 658.289 228.575 657.337 228.575ZM671.015 222.961C671.264 222.961 671.44 223.02 671.542 223.137C671.652 223.247 671.707 223.437 671.707 223.708V235.881H675.234C675.483 235.881 675.658 235.939 675.761 236.057C675.871 236.167 675.926 236.357 675.926 236.628C675.926 236.899 675.871 237.093 675.761 237.21C675.658 237.32 675.483 237.375 675.234 237.375H666.62C666.371 237.375 666.192 237.32 666.082 237.21C665.979 237.093 665.928 236.899 665.928 236.628C665.928 236.357 665.979 236.167 666.082 236.057C666.192 235.939 666.371 235.881 666.62 235.881H670.059V224.455H667.06C666.811 224.455 666.631 224.4 666.521 224.29C666.419 224.173 666.368 223.979 666.368 223.708C666.368 223.437 666.419 223.247 666.521 223.137C666.631 223.02 666.811 222.961 667.06 222.961H671.015ZM684.319 226.982C685.381 226.982 686.286 227.198 687.033 227.63C687.787 228.055 688.366 228.648 688.769 229.41C689.172 230.164 689.402 231.036 689.461 232.025C689.461 232.274 689.406 232.449 689.296 232.552C689.194 232.655 689.018 232.706 688.769 232.706H680.815C680.866 233.797 681.188 234.625 681.781 235.189C682.382 235.745 683.228 236.024 684.319 236.024C684.993 236.024 685.66 235.939 686.319 235.771C686.978 235.595 687.557 235.365 688.055 235.079C688.179 235.013 688.293 234.98 688.395 234.98C688.652 234.98 688.86 235.174 689.021 235.562C689.087 235.716 689.12 235.855 689.12 235.98C689.12 236.273 688.959 236.5 688.637 236.661C688.073 236.947 687.406 237.177 686.637 237.353C685.868 237.529 685.096 237.617 684.319 237.617C683.213 237.617 682.269 237.404 681.485 236.979C680.701 236.555 680.104 235.943 679.694 235.145C679.284 234.346 679.079 233.398 679.079 232.299C679.079 231.252 679.302 230.325 679.749 229.52C680.196 228.714 680.815 228.092 681.606 227.652C682.397 227.205 683.301 226.982 684.319 226.982ZM684.319 228.575C683.418 228.575 682.671 228.806 682.078 229.267C681.492 229.721 681.108 230.355 680.925 231.168H687.637C687.483 230.325 687.128 229.685 686.572 229.245C686.022 228.798 685.271 228.575 684.319 228.575ZM698.316 226.982C699.224 226.982 700.037 227.198 700.755 227.63C701.473 228.055 702.037 228.67 702.447 229.476C702.857 230.274 703.062 231.215 703.062 232.299C703.062 233.383 702.857 234.328 702.447 235.134C702.037 235.932 701.473 236.547 700.755 236.979C700.037 237.404 699.224 237.617 698.316 237.617C696.939 237.617 695.778 237.012 694.833 235.804V240.144H696.723C696.972 240.144 697.148 240.198 697.25 240.308C697.36 240.426 697.415 240.62 697.415 240.891C697.415 241.162 697.36 241.352 697.25 241.462C697.148 241.579 696.972 241.638 696.723 241.638H692.065C691.816 241.638 691.636 241.579 691.526 241.462C691.424 241.352 691.373 241.162 691.373 240.891C691.373 240.62 691.424 240.426 691.526 240.308C691.636 240.198 691.816 240.144 692.065 240.144H693.185V228.718H692.284C692.035 228.718 691.856 228.663 691.746 228.553C691.644 228.436 691.592 228.242 691.592 227.971C691.592 227.7 691.644 227.509 691.746 227.399C691.856 227.282 692.035 227.224 692.284 227.224H694.031C694.28 227.224 694.456 227.282 694.559 227.399C694.668 227.509 694.723 227.7 694.723 227.971V228.85C695.185 228.249 695.719 227.788 696.327 227.465C696.935 227.143 697.598 226.982 698.316 226.982ZM698.206 228.608C697.554 228.608 696.972 228.754 696.459 229.047C695.954 229.34 695.555 229.765 695.262 230.322C694.976 230.878 694.833 231.538 694.833 232.299C694.833 233.061 694.976 233.72 695.262 234.277C695.555 234.833 695.954 235.258 696.459 235.551C696.972 235.844 697.554 235.991 698.206 235.991C698.858 235.991 699.418 235.837 699.887 235.529C700.356 235.214 700.711 234.779 700.953 234.222C701.202 233.665 701.326 233.024 701.326 232.299C701.326 231.574 701.202 230.933 700.953 230.377C700.711 229.82 700.356 229.388 699.887 229.08C699.418 228.765 698.858 228.608 698.206 228.608ZM711.203 226.982C712.206 226.982 713.111 227.209 713.917 227.663C714.722 228.117 715.352 228.751 715.806 229.564C716.268 230.369 716.498 231.281 716.498 232.299C716.498 233.317 716.268 234.233 715.806 235.046C715.352 235.852 714.722 236.481 713.917 236.936C713.111 237.39 712.206 237.617 711.203 237.617C710.199 237.617 709.295 237.39 708.489 236.936C707.684 236.481 707.05 235.852 706.589 235.046C706.135 234.233 705.907 233.317 705.907 232.299C705.907 231.281 706.135 230.369 706.589 229.564C707.05 228.751 707.684 228.117 708.489 227.663C709.295 227.209 710.199 226.982 711.203 226.982ZM711.203 228.608C710.492 228.608 709.866 228.765 709.324 229.08C708.79 229.388 708.376 229.824 708.083 230.388C707.79 230.944 707.643 231.582 707.643 232.299C707.643 233.017 707.79 233.658 708.083 234.222C708.376 234.779 708.79 235.214 709.324 235.529C709.866 235.837 710.492 235.991 711.203 235.991C711.913 235.991 712.536 235.837 713.071 235.529C713.613 235.214 714.03 234.779 714.323 234.222C714.616 233.658 714.762 233.017 714.762 232.299C714.762 231.582 714.616 230.944 714.323 230.388C714.03 229.824 713.613 229.388 713.071 229.08C712.536 228.765 711.913 228.608 711.203 228.608ZM728.056 226.982C728.627 226.982 729.162 227.128 729.66 227.421C729.953 227.597 730.099 227.824 730.099 228.103C730.099 228.234 730.066 228.388 730 228.564C729.847 228.981 729.634 229.19 729.363 229.19C729.253 229.19 729.151 229.161 729.056 229.102C728.697 228.905 728.312 228.806 727.902 228.806C727.243 228.806 726.58 229.036 725.914 229.498C725.247 229.952 724.698 230.56 724.266 231.322C723.841 232.083 723.628 232.893 723.628 233.75V235.881H727.331C727.58 235.881 727.756 235.939 727.858 236.057C727.968 236.167 728.023 236.357 728.023 236.628C728.023 236.899 727.968 237.093 727.858 237.21C727.756 237.32 727.58 237.375 727.331 237.375H720.256C720.007 237.375 719.827 237.32 719.717 237.21C719.615 237.093 719.563 236.899 719.563 236.628C719.563 236.357 719.615 236.167 719.717 236.057C719.827 235.939 720.007 235.881 720.256 235.881H721.98V228.718H720.585C720.336 228.718 720.157 228.663 720.047 228.553C719.944 228.436 719.893 228.242 719.893 227.971C719.893 227.7 719.944 227.509 720.047 227.399C720.157 227.282 720.336 227.224 720.585 227.224H722.826C723.075 227.224 723.251 227.282 723.354 227.399C723.464 227.509 723.519 227.7 723.519 227.971V230.19C723.87 229.545 724.295 228.981 724.793 228.498C725.291 228.015 725.822 227.641 726.386 227.377C726.95 227.114 727.507 226.982 728.056 226.982ZM736.471 224.093C736.772 224.093 736.984 224.147 737.109 224.257C737.233 224.367 737.295 224.55 737.295 224.807V228.103H741.811C742.06 228.103 742.236 228.161 742.338 228.278C742.448 228.388 742.503 228.579 742.503 228.85C742.503 229.121 742.448 229.315 742.338 229.432C742.236 229.542 742.06 229.597 741.811 229.597H737.295V233.596C737.295 234.431 737.438 235.042 737.724 235.43C738.017 235.819 738.522 236.013 739.24 236.013C739.731 236.013 740.247 235.914 740.789 235.716C741.331 235.518 741.855 235.255 742.36 234.925C742.463 234.852 742.576 234.815 742.701 234.815C742.95 234.815 743.162 234.984 743.338 235.321C743.433 235.511 743.481 235.676 743.481 235.815C743.481 236.049 743.36 236.24 743.118 236.386C742.547 236.745 741.91 237.042 741.207 237.276C740.503 237.503 739.848 237.617 739.24 237.617C737.995 237.617 737.083 237.294 736.504 236.65C735.933 235.998 735.647 235.028 735.647 233.739V229.597H733.417C733.168 229.597 732.989 229.542 732.879 229.432C732.776 229.315 732.725 229.121 732.725 228.85C732.725 228.579 732.776 228.388 732.879 228.278C732.989 228.161 733.168 228.103 733.417 228.103H735.647V224.807C735.647 224.55 735.71 224.367 735.834 224.257C735.959 224.147 736.171 224.093 736.471 224.093ZM751.72 226.982C753.097 226.982 754.13 227.29 754.819 227.905C755.507 228.52 755.851 229.432 755.851 230.64V235.013C755.851 235.592 756.093 235.881 756.576 235.881H756.961C757.21 235.881 757.386 235.939 757.488 236.057C757.598 236.167 757.653 236.357 757.653 236.628C757.653 236.899 757.598 237.093 757.488 237.21C757.386 237.32 757.21 237.375 756.961 237.375H756.258C755.782 237.375 755.372 237.258 755.027 237.023C754.69 236.782 754.471 236.43 754.368 235.969C753.768 236.496 753.116 236.903 752.413 237.188C751.717 237.474 750.977 237.617 750.193 237.617C749.454 237.617 748.798 237.492 748.227 237.243C747.663 236.987 747.22 236.617 746.897 236.134C746.575 235.65 746.414 235.075 746.414 234.409C746.414 233.251 746.828 232.398 747.656 231.849C748.483 231.292 749.552 231.014 750.864 231.014C752.028 231.014 753.141 231.201 754.203 231.574V230.64C754.203 229.93 754.002 229.41 753.599 229.08C753.204 228.743 752.563 228.575 751.677 228.575C751.127 228.575 750.556 228.652 749.963 228.806C749.369 228.959 748.805 229.172 748.271 229.443C748.146 229.509 748.033 229.542 747.93 229.542C747.688 229.542 747.487 229.366 747.326 229.014C747.245 228.839 747.205 228.692 747.205 228.575C747.205 228.319 747.341 228.121 747.612 227.982C748.227 227.659 748.886 227.414 749.589 227.246C750.3 227.07 751.01 226.982 751.72 226.982ZM750.875 232.563C750.032 232.563 749.366 232.709 748.875 233.002C748.392 233.288 748.15 233.746 748.15 234.376C748.15 234.91 748.333 235.328 748.699 235.628C749.073 235.921 749.593 236.068 750.259 236.068C751.717 236.068 753.031 235.463 754.203 234.255V233.057C753.705 232.896 753.171 232.775 752.599 232.695C752.028 232.607 751.453 232.563 750.875 232.563ZM763.454 224.093C763.754 224.093 763.967 224.147 764.091 224.257C764.216 224.367 764.278 224.55 764.278 224.807V228.103H768.793C769.042 228.103 769.218 228.161 769.321 228.278C769.43 228.388 769.485 228.579 769.485 228.85C769.485 229.121 769.43 229.315 769.321 229.432C769.218 229.542 769.042 229.597 768.793 229.597H764.278V233.596C764.278 234.431 764.421 235.042 764.706 235.43C764.999 235.819 765.505 236.013 766.222 236.013C766.713 236.013 767.229 235.914 767.771 235.716C768.313 235.518 768.837 235.255 769.343 234.925C769.445 234.852 769.559 234.815 769.683 234.815C769.932 234.815 770.145 234.984 770.32 235.321C770.416 235.511 770.463 235.676 770.463 235.815C770.463 236.049 770.342 236.24 770.101 236.386C769.529 236.745 768.892 237.042 768.189 237.276C767.486 237.503 766.83 237.617 766.222 237.617C764.977 237.617 764.065 237.294 763.487 236.65C762.916 235.998 762.63 235.028 762.63 233.739V229.597H760.4C760.151 229.597 759.971 229.542 759.861 229.432C759.759 229.315 759.708 229.121 759.708 228.85C759.708 228.579 759.759 228.388 759.861 228.278C759.971 228.161 760.151 228.103 760.4 228.103H762.63V224.807C762.63 224.55 762.692 224.367 762.817 224.257C762.941 224.147 763.154 224.093 763.454 224.093ZM779.054 227.224C779.303 227.224 779.479 227.282 779.582 227.399C779.692 227.509 779.747 227.7 779.747 227.971V235.881H783.273C783.522 235.881 783.698 235.939 783.801 236.057C783.91 236.167 783.965 236.357 783.965 236.628C783.965 236.899 783.91 237.093 783.801 237.21C783.698 237.32 783.522 237.375 783.273 237.375H774.66C774.411 237.375 774.231 237.32 774.122 237.21C774.019 237.093 773.968 236.899 773.968 236.628C773.968 236.357 774.019 236.167 774.122 236.057C774.231 235.939 774.411 235.881 774.66 235.881H778.099V228.718H775.319C775.07 228.718 774.891 228.663 774.781 228.553C774.678 228.436 774.627 228.242 774.627 227.971C774.627 227.7 774.678 227.509 774.781 227.399C774.891 227.282 775.07 227.224 775.319 227.224H779.054ZM778.703 222.401C779.106 222.401 779.38 222.456 779.527 222.565C779.673 222.668 779.747 222.851 779.747 223.115V224.543C779.747 224.807 779.673 224.993 779.527 225.103C779.38 225.206 779.106 225.257 778.703 225.257C778.3 225.257 778.025 225.206 777.879 225.103C777.732 224.993 777.659 224.807 777.659 224.543V223.115C777.659 222.851 777.732 222.668 777.879 222.565C778.025 222.456 778.3 222.401 778.703 222.401ZM792.15 226.982C793.154 226.982 794.058 227.209 794.864 227.663C795.669 228.117 796.299 228.751 796.753 229.564C797.215 230.369 797.446 231.281 797.446 232.299C797.446 233.317 797.215 234.233 796.753 235.046C796.299 235.852 795.669 236.481 794.864 236.936C794.058 237.39 793.154 237.617 792.15 237.617C791.147 237.617 790.242 237.39 789.437 236.936C788.631 236.481 787.997 235.852 787.536 235.046C787.082 234.233 786.855 233.317 786.855 232.299C786.855 231.281 787.082 230.369 787.536 229.564C787.997 228.751 788.631 228.117 789.437 227.663C790.242 227.209 791.147 226.982 792.15 226.982ZM792.15 228.608C791.44 228.608 790.813 228.765 790.271 229.08C789.737 229.388 789.323 229.824 789.03 230.388C788.737 230.944 788.591 231.582 788.591 232.299C788.591 233.017 788.737 233.658 789.03 234.222C789.323 234.779 789.737 235.214 790.271 235.529C790.813 235.837 791.44 235.991 792.15 235.991C792.861 235.991 793.483 235.837 794.018 235.529C794.56 235.214 794.977 234.779 795.27 234.222C795.563 233.658 795.71 233.017 795.71 232.299C795.71 231.582 795.563 230.944 795.27 230.388C794.977 229.824 794.56 229.388 794.018 229.08C793.483 228.765 792.861 228.608 792.15 228.608ZM806.883 226.982C807.549 226.982 808.128 227.128 808.619 227.421C809.109 227.707 809.487 228.121 809.75 228.663C810.014 229.205 810.146 229.838 810.146 230.563V235.881H811.047C811.296 235.881 811.471 235.939 811.574 236.057C811.684 236.167 811.739 236.357 811.739 236.628C811.739 236.899 811.684 237.093 811.574 237.21C811.471 237.32 811.296 237.375 811.047 237.375H807.487C807.238 237.375 807.059 237.32 806.949 237.21C806.846 237.093 806.795 236.899 806.795 236.628C806.795 236.357 806.846 236.167 806.949 236.057C807.059 235.939 807.238 235.881 807.487 235.881H808.498V230.728C808.498 230.076 808.348 229.56 808.047 229.179C807.747 228.798 807.304 228.608 806.718 228.608C806.095 228.608 805.513 228.787 804.971 229.146C804.437 229.505 804.008 230 803.686 230.629C803.364 231.259 803.202 231.962 803.202 232.739V235.881H804.213C804.462 235.881 804.638 235.939 804.74 236.057C804.85 236.167 804.905 236.357 804.905 236.628C804.905 236.899 804.85 237.093 804.74 237.21C804.638 237.32 804.462 237.375 804.213 237.375H800.654C800.405 237.375 800.225 237.32 800.115 237.21C800.013 237.093 799.961 236.899 799.961 236.628C799.961 236.357 800.013 236.167 800.115 236.057C800.225 235.939 800.405 235.881 800.654 235.881H801.554V228.718H800.434C800.185 228.718 800.005 228.663 799.896 228.553C799.793 228.436 799.742 228.242 799.742 227.971C799.742 227.7 799.793 227.509 799.896 227.399C800.005 227.282 800.185 227.224 800.434 227.224H802.4C802.649 227.224 802.825 227.282 802.928 227.399C803.038 227.509 803.093 227.7 803.093 227.971V229.289C803.576 228.542 804.14 227.971 804.784 227.575C805.436 227.18 806.136 226.982 806.883 226.982Z" fill="black"/>
<path d="M1250.51 223.603C1250.75 223.603 1250.93 223.662 1251.03 223.779C1251.14 223.889 1251.2 224.079 1251.2 224.35V228.492C1251.2 228.748 1251.14 228.931 1251.01 229.041C1250.89 229.151 1250.67 229.206 1250.37 229.206C1250.07 229.206 1249.86 229.151 1249.74 229.041C1249.61 228.931 1249.55 228.748 1249.55 228.492V225.097H1246.62V235.15H1249.21C1249.46 235.15 1249.63 235.208 1249.74 235.325C1249.85 235.435 1249.9 235.626 1249.9 235.897C1249.9 236.168 1249.85 236.362 1249.74 236.479C1249.63 236.589 1249.46 236.644 1249.21 236.644H1242.38C1242.13 236.644 1241.95 236.589 1241.84 236.479C1241.73 236.362 1241.68 236.168 1241.68 235.897C1241.68 235.626 1241.73 235.435 1241.84 235.325C1241.95 235.208 1242.13 235.15 1242.38 235.15H1244.97V225.097H1242.03V228.492C1242.03 228.748 1241.97 228.931 1241.85 229.041C1241.72 229.151 1241.51 229.206 1241.21 229.206C1240.91 229.206 1240.7 229.151 1240.57 229.041C1240.45 228.931 1240.39 228.748 1240.39 228.492V224.35C1240.39 224.079 1240.44 223.889 1240.54 223.779C1240.65 223.662 1240.83 223.603 1241.08 223.603H1250.51ZM1259.28 226.251C1260.29 226.251 1261.19 226.478 1262 226.932C1262.8 227.386 1263.43 228.02 1263.89 228.833C1264.35 229.638 1264.58 230.55 1264.58 231.568C1264.58 232.586 1264.35 233.502 1263.89 234.315C1263.43 235.12 1262.8 235.75 1262 236.204C1261.19 236.658 1260.29 236.885 1259.28 236.885C1258.28 236.885 1257.38 236.658 1256.57 236.204C1255.76 235.75 1255.13 235.12 1254.67 234.315C1254.21 233.502 1253.99 232.586 1253.99 231.568C1253.99 230.55 1254.21 229.638 1254.67 228.833C1255.13 228.02 1255.76 227.386 1256.57 226.932C1257.38 226.478 1258.28 226.251 1259.28 226.251ZM1259.28 227.877C1258.57 227.877 1257.95 228.034 1257.4 228.349C1256.87 228.657 1256.46 229.093 1256.16 229.656C1255.87 230.213 1255.72 230.85 1255.72 231.568C1255.72 232.286 1255.87 232.927 1256.16 233.491C1256.46 234.047 1256.87 234.483 1257.4 234.798C1257.95 235.106 1258.57 235.26 1259.28 235.26C1259.99 235.26 1260.62 235.106 1261.15 234.798C1261.69 234.483 1262.11 234.047 1262.4 233.491C1262.7 232.927 1262.84 232.286 1262.84 231.568C1262.84 230.85 1262.7 230.213 1262.4 229.656C1262.11 229.093 1261.69 228.657 1261.15 228.349C1260.62 228.034 1259.99 227.877 1259.28 227.877Z" fill="black"/>
</svg>
