<svg width="2987" height="131" viewBox="0 0 2987 131" fill="none" xmlns="http://www.w3.org/2000/svg">
<g clip-path="url(#clip0_231_51)">
<path d="M64.6874 0.625198C100.413 0.625198 129.375 29.5867 129.375 65.3126C129.375 101.038 100.413 130 64.6874 130C28.9615 130 0 101.038 0 65.3126C0 29.5867 28.9615 0.625198 64.6874 0.625198Z" fill="black"/>
<path d="M215.062 0.625198C250.788 0.625198 279.75 29.5867 279.75 65.3126C279.75 101.038 250.788 130 215.062 130C179.337 130 150.375 101.038 150.375 65.3126C150.375 29.5867 179.337 0.625198 215.062 0.625198Z" fill="black"/>
<path d="M365.437 0.625198C401.163 0.625198 430.125 29.5867 430.125 65.3126C430.125 101.038 401.163 130 365.437 130C329.712 130 300.75 101.038 300.75 65.3126C300.75 29.5867 329.712 0.625198 365.437 0.625198Z" fill="black"/>
<path d="M515.812 0.625198C551.538 0.625198 580.5 29.5867 580.5 65.3126C580.5 101.038 551.538 130 515.812 130C480.087 130 451.125 101.038 451.125 65.3126C451.125 29.5867 480.087 0.625198 515.812 0.625198Z" fill="black"/>
<path d="M666.187 0.625198C701.913 0.625198 730.875 29.5867 730.875 65.3126C730.875 101.038 701.913 130 666.187 130C630.462 130 601.5 101.038 601.5 65.3126C601.5 29.5867 630.462 0.625198 666.187 0.625198Z" fill="black"/>
<path d="M816.562 1.0002C852.288 1.0002 881.25 29.9617 881.25 65.6876C881.25 101.413 852.288 130.375 816.562 130.375C780.837 130.375 751.875 101.413 751.875 65.6876C751.875 29.9617 780.837 1.0002 816.562 1.0002Z" fill="black"/>
<path d="M966.937 1.0002C1002.66 1.0002 1031.62 29.9617 1031.62 65.6876C1031.62 101.413 1002.66 130.375 966.937 130.375C931.212 130.375 902.25 101.413 902.25 65.6876C902.25 29.9617 931.212 1.0002 966.937 1.0002Z" fill="black"/>
<path d="M1117.31 1.0002C1153.03 1.0002 1181.99 29.9617 1181.99 65.6876C1181.99 101.413 1153.03 130.375 1117.31 130.375C1081.58 130.375 1052.62 101.413 1052.62 65.6876C1052.62 29.9617 1081.58 1.0002 1117.31 1.0002Z" fill="black"/>
<path d="M1267.69 1.0002C1303.41 1.0002 1332.37 29.9617 1332.37 65.6876C1332.37 101.413 1303.41 130.375 1267.69 130.375C1231.96 130.375 1203 101.413 1203 65.6876C1203 29.9617 1231.96 1.0002 1267.69 1.0002Z" fill="black"/>
<path d="M1418.07 1.0002C1453.79 1.0002 1482.76 29.9617 1482.76 65.6876C1482.76 101.413 1453.79 130.375 1418.07 130.375C1382.34 130.375 1353.38 101.413 1353.38 65.6876C1353.38 29.9617 1382.34 1.0002 1418.07 1.0002Z" fill="black"/>
<path d="M1568.44 0.625198C1604.16 0.625198 1633.12 29.5867 1633.12 65.3126C1633.12 101.038 1604.16 130 1568.44 130C1532.71 130 1503.75 101.038 1503.75 65.3126C1503.75 29.5867 1532.71 0.625198 1568.44 0.625198Z" fill="black"/>
<path d="M1718.81 0.625198C1754.53 0.625198 1783.49 29.5867 1783.49 65.3126C1783.49 101.038 1754.53 130 1718.81 130C1683.08 130 1654.12 101.038 1654.12 65.3126C1654.12 29.5867 1683.08 0.625198 1718.81 0.625198Z" fill="black"/>
<path d="M1869.19 0.625198C1904.91 0.625198 1933.87 29.5867 1933.87 65.3126C1933.87 101.038 1904.91 130 1869.19 130C1833.46 130 1804.5 101.038 1804.5 65.3126C1804.5 29.5867 1833.46 0.625198 1869.19 0.625198Z" fill="black"/>
<path d="M2019.57 0.625198C2055.29 0.625198 2084.26 29.5867 2084.26 65.3126C2084.26 101.038 2055.29 130 2019.57 130C1983.84 130 1954.88 101.038 1954.88 65.3126C1954.88 29.5867 1983.84 0.625198 2019.57 0.625198Z" fill="black"/>
<path d="M2169.94 0.625198C2205.66 0.625198 2234.62 29.5867 2234.62 65.3126C2234.62 101.038 2205.66 130 2169.94 130C2134.21 130 2105.25 101.038 2105.25 65.3126C2105.25 29.5867 2134.21 0.625198 2169.94 0.625198Z" fill="black"/>
<path d="M2320.31 1.0002C2356.03 1.0002 2385 29.9617 2385 65.6876C2385 101.413 2356.03 130.375 2320.31 130.375C2284.58 130.375 2255.62 101.413 2255.62 65.6876C2255.62 29.9617 2284.58 1.0002 2320.31 1.0002Z" fill="black"/>
<path d="M2470.69 1.0002C2506.41 1.0002 2535.37 29.9617 2535.37 65.6876C2535.37 101.413 2506.41 130.375 2470.69 130.375C2434.96 130.375 2406 101.413 2406 65.6876C2406 29.9617 2434.96 1.0002 2470.69 1.0002Z" fill="black"/>
<path d="M2621.07 1.0002C2656.79 1.0002 2685.75 29.9617 2685.75 65.6876C2685.75 101.413 2656.79 130.375 2621.07 130.375C2585.34 130.375 2556.38 101.413 2556.38 65.6876C2556.38 29.9617 2585.34 1.0002 2621.07 1.0002Z" fill="black"/>
<path d="M2771.44 1.0002C2807.16 1.0002 2836.12 29.9617 2836.12 65.6876C2836.12 101.413 2807.16 130.375 2771.44 130.375C2735.71 130.375 2706.75 101.413 2706.75 65.6876C2706.75 29.9617 2735.71 1.0002 2771.44 1.0002Z" fill="black"/>
<path d="M2921.81 1.0002C2957.53 1.0002 2986.5 29.9617 2986.5 65.6876C2986.5 101.413 2957.53 130.375 2921.81 130.375C2886.08 130.375 2857.12 101.413 2857.12 65.6876C2857.12 29.9617 2886.08 1.0002 2921.81 1.0002Z" fill="black"/>
<line x1="62.9375" y1="113.875" x2="62.9375" y2="16" stroke="white" stroke-width="5.625"/>
<line x1="15" y1="62.1875" x2="112.875" y2="62.1875" stroke="white" stroke-width="5.625"/>
<line x1="513.938" y1="113.875" x2="513.938" y2="16" stroke="white" stroke-width="5.625"/>
<line x1="466" y1="62.1875" x2="563.875" y2="62.1875" stroke="white" stroke-width="5.625"/>
<line x1="964.938" y1="114.875" x2="964.938" y2="17" stroke="white" stroke-width="5.625"/>
<line x1="917" y1="63.1875" x2="1014.88" y2="63.1875" stroke="white" stroke-width="5.625"/>
<line x1="1415.94" y1="114.875" x2="1415.94" y2="17" stroke="white" stroke-width="5.625"/>
<line x1="1368" y1="63.1875" x2="1465.88" y2="63.1875" stroke="white" stroke-width="5.625"/>
<line x1="1866.94" y1="113.875" x2="1866.94" y2="16" stroke="white" stroke-width="5.625"/>
<line x1="1819" y1="62.1875" x2="1916.88" y2="62.1875" stroke="white" stroke-width="5.625"/>
<line x1="2317.94" y1="114.875" x2="2317.94" y2="17" stroke="white" stroke-width="5.625"/>
<line x1="2270" y1="63.1875" x2="2367.88" y2="63.1875" stroke="white" stroke-width="5.625"/>
<line x1="2768.94" y1="114.875" x2="2768.94" y2="17" stroke="white" stroke-width="5.625"/>
<line x1="2721" y1="63.1875" x2="2818.88" y2="63.1875" stroke="white" stroke-width="5.625"/>
</g>
<defs>
<clipPath id="clip0_231_51">
<rect width="2987" height="131" fill="white"/>
</clipPath>
</defs>
</svg>
