<svg width="2987" height="131" viewBox="0 0 2987 131" fill="none" xmlns="http://www.w3.org/2000/svg">
<circle cx="64.6874" cy="64.6874" r="64.6874" transform="matrix(1 0 0 -1 0 130)" fill="black"/>
<circle cx="64.6874" cy="64.6874" r="64.6874" transform="matrix(1 0 0 -1 150.375 130)" fill="black"/>
<circle cx="64.6874" cy="64.6874" r="64.6874" transform="matrix(1 0 0 -1 300.75 130)" fill="black"/>
<circle cx="64.6874" cy="64.6874" r="64.6874" transform="matrix(1 0 0 -1 451.125 130)" fill="black"/>
<circle cx="64.6874" cy="64.6874" r="64.6874" transform="matrix(1 0 0 -1 601.5 130)" fill="black"/>
<circle cx="64.6874" cy="64.6874" r="64.6874" transform="matrix(1 0 0 -1 751.875 130.375)" fill="black"/>
<circle cx="64.6874" cy="64.6874" r="64.6874" transform="matrix(1 0 0 -1 902.25 130.375)" fill="black"/>
<circle cx="64.6874" cy="64.6874" r="64.6874" transform="matrix(1 0 0 -1 1052.62 130.375)" fill="black"/>
<circle cx="64.6874" cy="64.6874" r="64.6874" transform="matrix(1 0 0 -1 1203 130.375)" fill="black"/>
<circle cx="64.6874" cy="64.6874" r="64.6874" transform="matrix(1 0 0 -1 1353.38 130.375)" fill="black"/>
<circle cx="64.6874" cy="64.6874" r="64.6874" transform="matrix(1 0 0 -1 1503.75 130)" fill="black"/>
<circle cx="64.6874" cy="64.6874" r="64.6874" transform="matrix(1 0 0 -1 1654.12 130)" fill="black"/>
<circle cx="64.6874" cy="64.6874" r="64.6874" transform="matrix(1 0 0 -1 1804.5 130)" fill="black"/>
<circle cx="64.6874" cy="64.6874" r="64.6874" transform="matrix(1 0 0 -1 1954.88 130)" fill="black"/>
<circle cx="64.6874" cy="64.6874" r="64.6874" transform="matrix(1 0 0 -1 2105.25 130)" fill="black"/>
<circle cx="64.6874" cy="64.6874" r="64.6874" transform="matrix(1 0 0 -1 2255.62 130.375)" fill="black"/>
<circle cx="64.6874" cy="64.6874" r="64.6874" transform="matrix(1 0 0 -1 2406 130.375)" fill="black"/>
<circle cx="64.6874" cy="64.6874" r="64.6874" transform="matrix(1 0 0 -1 2556.38 130.375)" fill="black"/>
<circle cx="64.6874" cy="64.6874" r="64.6874" transform="matrix(1 0 0 -1 2706.75 130.375)" fill="black"/>
<circle cx="64.6874" cy="64.6874" r="64.6874" transform="matrix(1 0 0 -1 2857.12 130.375)" fill="black"/>
</svg>
